<svg xmlns="http://www.w3.org/2000/svg" xmlns:xlink="http://www.w3.org/1999/xlink" width="264" height="280">
    <defs>
        <path d="M124 144.611V163h4c39.765 0 72 32.235 72 72v9H0v-9c0-39.765 32.235-72 72-72h4v-18.389c-17.237-8.189-29.628-24.924-31.695-44.73C38.48 99.058 34 94.052 34 88V74c0-5.946 4.325-10.882 10-11.834V56c0-30.928 25.072-56 56-56s56 25.072 56 56v6.166c5.675.952 10 5.888 10 11.834v14c0 6.052-4.48 11.058-10.305 11.881-2.067 19.806-14.457 36.541-31.695 44.73z" id="a" />
    </defs>
    <g mask="url(#react-mask-5)" fill="none" fill-rule="evenodd">
        <g transform="translate(32 36)">
            <mask id="b" fill="#fff">
                <use xlink:href="#a" />
            </mask>
            <use fill="#d0c6ac" xlink:href="#a" />
            <g mask="url(#b)" fill="#ffdbb4">
                <path d="M0 0h264v280H0z" />
            </g>
            <path d="M156 79v23c0 30.928-25.072 56-56 56s-56-25.072-56-56V79v15c0 30.928 25.072 56 56 56s56-25.072 56-56V79z" fill-opacity=".1" fill="#000" mask="url(#b)" />
        </g>
        <g transform="translate(0 170)">
            <defs>
                <path d="M165.96 29.295c36.976 3.03 66.04 33.999 66.04 71.757V110H32v-8.948c0-38.099 29.592-69.287 67.045-71.832A14.02 14.02 0 0 0 99 30.348c0 11.863 14.998 21.48 33.5 21.48s33.5-9.617 33.5-21.48c0-.353-.013-.704-.04-1.053z" id="c" />
            </defs>
            <mask id="d" fill="#fff">
                <use xlink:href="#c" />
            </mask>
            <use fill="#e6e6e6" xlink:href="#c" />
            <g mask="url(#d)" fill="#ffcf43" >
                <path d="M0 0h264v110H0z" />
            </g>
            <g opacity=".6" mask="url(#d)" fill-opacity=".16" fill="#000">
                <ellipse cx="132.5" cy="31.848" rx="39.635" ry="26.914" />
            </g>
        </g>
        <g fill="#000">
            <path d="M118 149c0 7.732 6.268 14 14 14s14-6.268 14-14" fill-opacity=".7" />
            <path d="M120 130c0 4.418 5.373 8 12 8s12-3.582 12-8" fill-opacity=".16" />
            <g fill-opacity=".6">
                <circle cx="106" cy="112" r="6" />
                <circle cx="158" cy="112" r="6" />
            </g>
            <path d="M102.547 88.148c-5.807.268-15.195 4.488-14.953 10.344.008.192.29.276.427.128 2.755-2.959 22.315-5.95 29.205-4.365.631.145 1.11-.477.71-.926-3.422-3.848-10.186-5.426-15.389-5.181m59.906 0c5.807.268 15.195 4.488 14.953 10.344-.008.192-.29.276-.427.128-2.755-2.959-22.315-5.95-29.205-4.365-.631.145-1.11-.477-.71-.926 3.422-3.848 10.186-5.426 15.389-5.181" fill-opacity=".6" />
        </g>
        <defs>
            <path id="e" d="M0 0h264v280H0z" />
            <path d="M183.68 38.949c5.406-4.95 6.708-14.987 3.638-21.499-3.768-7.995-11.416-8.997-18.745-5.481-6.908 3.315-13.057 4.419-20.622 2.813-7.259-1.541-14.145-4.259-21.647-4.705-12.325-.733-24.3 3.838-32.7 13.053-1.603 1.758-2.894 3.768-4.115 5.805-.977 1.63-2.078 3.379-2.493 5.258-.198.893.17 3.098-.275 3.83-.481.79-2.296 1.515-3.069 2.102-1.567 1.189-2.924 2.53-4.18 4.047-2.666 3.222-4.134 6.587-5.368 10.572-4.103 13.245-4.451 28.998.853 42.004.707 1.734 2.898 5.352 4.186 1.638.255-.734-.335-3.194-.333-3.935.005-2.72 1.506-20.729 8.047-30.817 2.129-3.284 11.973-15.581 13.983-15.679 1.065 1.693 11.88 12.509 39.943 11.241 12.662-.572 22.399-6.261 24.737-8.727 1.029 5.533 12.992 13.816 14.815 17.224 5.266 9.845 6.434 30.304 8.445 30.265s3.453-5.238 3.867-6.23c3.072-7.375 3.595-16.632 3.267-24.559-.427-10.202-4.638-21.226-12.235-28.22z" id="g" />
        </defs>
        <mask id="f" fill="#fff">
            <use xlink:href="#e" />
        </mask>
        <g mask="url(#f)">
            <g transform="translate(-1)">
                <mask id="h" fill="#fff">
                    <use xlink:href="#g" />
                </mask>
                <use fill="#28354b" xlink:href="#g" />
                <g mask="url(#h)" fill="#a55728">
                    <path d="M0 0h264v280H0z" />
                </g>
            </g>
        </g>
    </g>
</svg>