<?xml version="1.0" standalone="no"?>
<!DOCTYPE svg PUBLIC "-//W3C//DTD SVG 20010904//EN"
 "http://www.w3.org/TR/2001/REC-SVG-20010904/DTD/svg10.dtd">
<svg version="1.0" xmlns="http://www.w3.org/2000/svg"
 width="560.000000pt" height="560.000000pt" viewBox="0 0 560.000000 560.000000"
 preserveAspectRatio="xMidYMid meet">
<metadata>
Created by potrace 1.14, written by Peter Selinger 2001-2017
</metadata>
<g transform="translate(0.000000,560.000000) scale(0.100000,-0.100000)"
fill="#000000" stroke="none">
<path d="M2608 5404 c-3 -2 -34 -6 -70 -9 -141 -9 -293 -66 -414 -156 -128
-94 -244 -264 -248 -361 -1 -34 -7 -42 -51 -73 -65 -46 -131 -126 -162 -195
-13 -30 -28 -64 -33 -75 -8 -17 -32 -110 -46 -179 -7 -37 -25 -174 -23 -182 1
-5 1 -12 0 -16 -2 -9 -3 -127 -1 -130 1 -2 4 -30 6 -62 4 -50 20 -134 38 -206
2 -8 13 -39 25 -69 19 -51 19 -55 3 -67 -9 -7 -22 -14 -28 -14 -6 0 -30 -20
-54 -44 -62 -63 -69 -97 -69 -319 1 -161 4 -193 19 -225 34 -69 90 -115 167
-137 12 -3 21 -13 21 -23 -2 -21 29 -167 44 -207 43 -117 128 -284 150 -293 4
-2 8 -8 8 -14 0 -5 6 -15 13 -22 6 -8 36 -41 66 -76 71 -80 176 -165 273 -220
64 -36 77 -48 76 -67 -1 -13 -5 -24 -8 -24 -3 -1 -18 -3 -35 -4 -38 -4 -72
-10 -200 -40 -125 -30 -240 -89 -304 -156 -32 -35 -73 -108 -79 -144 -2 -11
-5 -27 -7 -35 -2 -8 -4 -23 -4 -32 -1 -11 -30 -31 -82 -57 -230 -115 -427
-290 -564 -501 -66 -102 -87 -140 -78 -140 4 0 3 -4 -2 -8 -19 -13 -73 -147
-106 -262 -15 -53 -15 -54 -23 -100 -3 -19 -8 -46 -11 -60 -15 -71 -23 -369
-10 -390 4 -7 623 -10 2001 -10 l1994 0 1 23 c1 19 0 82 -2 112 0 6 0 33 0 60
4 248 -86 553 -221 752 -15 23 -28 45 -28 48 0 4 -30 43 -66 87 -139 168 -297
295 -481 387 l-79 40 -14 68 c-7 37 -19 74 -27 81 -7 7 -13 19 -13 27 0 23
-115 120 -175 149 -78 36 -195 75 -250 81 -21 3 -94 15 -123 20 -9 2 -23 4
-29 4 -7 1 -13 12 -13 25 0 17 9 28 33 39 18 9 49 27 70 41 21 14 41 26 44 26
19 0 208 177 263 246 94 118 177 306 210 473 10 51 22 87 31 91 76 36 97 49
122 75 61 63 67 89 64 315 -2 180 -5 209 -22 240 -26 48 -83 98 -127 112 -42
13 -44 15 -24 37 30 33 90 212 103 306 9 64 10 326 2 385 -22 158 -95 319
-197 432 -32 35 -33 40 -20 56 56 64 90 175 85 277 -6 112 -47 193 -124 246
-44 31 -53 33 -128 33 -70 0 -92 -5 -170 -38 -49 -21 -110 -44 -136 -50 -66
-18 -187 -17 -261 1 -35 8 -70 16 -78 18 -8 2 -49 12 -90 23 -84 23 -108 28
-198 43 -35 6 -66 8 -69 6 -3 -3 -15 -2 -28 3 -13 5 -25 7 -27 4z"/>
</g>
</svg>
