<?xml version="1.0" standalone="no"?>
<!DOCTYPE svg PUBLIC "-//W3C//DTD SVG 20010904//EN"
 "http://www.w3.org/TR/2001/REC-SVG-20010904/DTD/svg10.dtd">
<svg version="1.0" xmlns="http://www.w3.org/2000/svg"
 width="560.000000pt" height="560.000000pt" viewBox="0 0 560.000000 560.000000"
 preserveAspectRatio="xMidYMid meet">
<metadata>
Created by potrace 1.14, written by Peter Selinger 2001-2017
</metadata>
<g transform="translate(0.000000,560.000000) scale(0.100000,-0.100000)"
fill="#000000" stroke="none">
<path d="M2608 5405 c-3 -3 -34 -7 -70 -10 -141 -9 -293 -66 -414 -156 -128
-94 -244 -264 -248 -361 -1 -34 -7 -42 -51 -73 -65 -46 -131 -126 -162 -195
-13 -30 -28 -64 -33 -75 -8 -17 -32 -110 -46 -179 -12 -61 -24 -178 -19 -185
3 -5 1 -12 -5 -16 -6 -4 -8 -9 -6 -13 2 -4 7 -59 10 -122 6 -97 16 -167 40
-260 2 -8 13 -39 25 -69 19 -51 19 -55 3 -67 -9 -7 -22 -14 -28 -14 -6 0 -30
-20 -54 -44 -62 -63 -69 -97 -69 -319 1 -161 4 -193 19 -225 34 -69 90 -115
167 -137 12 -3 21 -13 21 -23 -2 -21 29 -167 44 -207 43 -117 128 -284 150
-293 4 -2 8 -8 8 -14 0 -5 6 -15 13 -22 6 -8 36 -41 66 -76 71 -80 176 -165
273 -220 l77 -43 -1 -76 c0 -42 1 -80 2 -86 1 -5 1 -14 0 -20 -1 -5 -2 -49 -2
-97 l0 -88 -91 -1 c-144 -2 -192 -8 -325 -39 -284 -67 -549 -228 -747 -453
-161 -183 -293 -450 -329 -668 -3 -19 -8 -45 -11 -59 -15 -74 -23 -369 -10
-390 4 -7 623 -10 2001 -10 l1994 0 1 23 c1 19 0 82 -2 112 0 6 0 33 0 60 4
238 -88 561 -211 737 -10 14 -18 29 -18 32 0 4 -4 12 -10 19 -5 7 -39 49 -74
93 -202 258 -516 453 -826 513 -30 6 -66 14 -80 17 -14 3 -86 8 -160 11 -83 3
-138 10 -142 17 -4 6 -4 12 0 13 7 3 6 118 -1 195 -2 21 -1 38 3 38 3 0 4 24
3 54 -3 52 -2 54 29 69 19 9 50 27 71 41 21 14 41 26 44 26 19 0 208 177 263
246 94 118 177 306 210 473 10 51 22 87 31 91 76 36 97 49 122 75 61 63 67 89
64 315 -2 180 -5 209 -22 240 -26 48 -83 98 -127 112 -42 13 -44 15 -24 37 30
33 90 212 103 306 9 64 10 326 2 385 -22 158 -95 319 -197 432 -32 35 -33 40
-20 56 56 64 90 175 85 277 -6 112 -47 193 -124 246 -44 31 -53 33 -128 33
-70 0 -92 -5 -170 -38 -49 -21 -110 -44 -136 -50 -66 -18 -187 -17 -261 1 -35
8 -70 16 -78 18 -8 2 -49 12 -90 23 -41 12 -86 23 -100 26 -14 3 -36 7 -50 11
-14 3 -54 7 -88 10 -35 3 -67 7 -72 10 -4 2 -9 2 -12 0z"/>
</g>
</svg>
